<svg width="42" height="42" viewBox="0 0 42 42" fill="none" xmlns="http://www.w3.org/2000/svg">
<g filter="url(#filter0_i)">
<path d="M21 0C9.42113 0 0 9.42113 0 21C0 32.5789 9.42113 42 21 42C32.5789 42 42 32.5789 42 21C42 9.42113 32.5789 0 21 0ZM21 39.375C10.8675 39.375 2.625 31.1325 2.625 21C2.625 10.8675 10.8675 2.625 21 2.625C31.1325 2.625 39.375 10.8675 39.375 21C39.375 31.1325 31.1325 39.375 21 39.375Z" fill="#111016"/>
</g>
<g filter="url(#filter1_i)">
<path d="M21 19.6875C18.8659 19.6875 17.0625 18.4852 17.0625 17.0625C17.0625 15.6398 18.8659 14.4375 21 14.4375C22.2075 14.4375 23.3258 14.8155 24.066 15.4718C24.6068 15.9521 25.4336 15.9075 25.9192 15.3615C26.4022 14.8208 26.3524 13.9912 25.809 13.5082C24.8902 12.6919 23.6565 12.1406 22.3125 11.9227V10.5C22.3125 9.7755 21.7245 9.1875 21 9.1875C20.2755 9.1875 19.6875 9.7755 19.6875 10.5V11.9175C16.695 12.4057 14.4375 14.5267 14.4375 17.0625C14.4375 19.9579 17.3827 22.3125 21 22.3125C23.1341 22.3125 24.9375 23.5148 24.9375 24.9375C24.9375 26.3602 23.1341 27.5625 21 27.5625C19.7925 27.5625 18.6742 27.1845 17.934 26.5282C17.3932 26.0452 16.5637 26.0925 16.0807 26.6385C15.5977 27.1792 15.6476 28.0088 16.191 28.4918C17.1098 29.3108 18.3435 29.8594 19.6875 30.0799V31.5C19.6875 32.2245 20.2755 32.8125 21 32.8125C21.7245 32.8125 22.3125 32.2245 22.3125 31.5V30.0825C25.305 29.5943 27.5625 27.4733 27.5625 24.9375C27.5625 22.0421 24.6173 19.6875 21 19.6875Z" fill="#111016"/>
</g>
<defs>
<filter id="filter0_i" x="0" y="0" width="44" height="44" filterUnits="userSpaceOnUse" color-interpolation-filters="sRGB">
<feFlood flood-opacity="0" result="BackgroundImageFix"/>
<feBlend mode="normal" in="SourceGraphic" in2="BackgroundImageFix" result="shape"/>
<feColorMatrix in="SourceAlpha" type="matrix" values="0 0 0 0 0 0 0 0 0 0 0 0 0 0 0 0 0 0 127 0" result="hardAlpha"/>
<feOffset dx="2" dy="2"/>
<feGaussianBlur stdDeviation="1"/>
<feComposite in2="hardAlpha" operator="arithmetic" k2="-1" k3="1"/>
<feColorMatrix type="matrix" values="0 0 0 0 0.0431373 0 0 0 0 0.0392157 0 0 0 0 0.0627451 0 0 0 1 0"/>
<feBlend mode="normal" in2="shape" result="effect1_innerShadow"/>
</filter>
<filter id="filter1_i" x="14.4375" y="9.1875" width="15.125" height="25.625" filterUnits="userSpaceOnUse" color-interpolation-filters="sRGB">
<feFlood flood-opacity="0" result="BackgroundImageFix"/>
<feBlend mode="normal" in="SourceGraphic" in2="BackgroundImageFix" result="shape"/>
<feColorMatrix in="SourceAlpha" type="matrix" values="0 0 0 0 0 0 0 0 0 0 0 0 0 0 0 0 0 0 127 0" result="hardAlpha"/>
<feOffset dx="2" dy="2"/>
<feGaussianBlur stdDeviation="1"/>
<feComposite in2="hardAlpha" operator="arithmetic" k2="-1" k3="1"/>
<feColorMatrix type="matrix" values="0 0 0 0 0.0431373 0 0 0 0 0.0392157 0 0 0 0 0.0627451 0 0 0 1 0"/>
<feBlend mode="normal" in2="shape" result="effect1_innerShadow"/>
</filter>
</defs>
</svg>
